PathFileType	4	(X/Y/Z)	C:\Users\°ÂÌØÂü\Desktop\20210112\bx_n_10_901-Unnamed.trc
DataRate	CameraRate	NumFrames	NumMarkers	Units	OrigDataRate	OrigDataStartFrame	OrigNumFrames
50.00	50.00	       6	0	mm	50.00	389	       518
Frame#	Time	
		

389	7.760	-708.47302	90.53365	1847.28589	-583.30475	208.90488	815.65479	-580.41589	-17.63242	1054.71326	-789.13599	74.04014	1057.63953	-577.94873	-13.60988	804.33447	-669.85071	52.64693	161.33241	-697.03632	260.40952	747.37872	-572.10291	90.87210	1355.18579	-725.48511	242.61609	644.63251	-656.96350	9.22741	519.66626	-673.10236	202.09555	535.52209	-767.50171	251.21185	504.47992	-517.73615	-72.86246	142.86557	-547.89026	-29.84264	162.84019				-789.49829	41.21602	172.90123	-595.90332	24.02489	169.62218	-673.57666	173.68736	159.05113	-710.51721	153.43669	217.12543	-794.56097	178.47073	183.39771	-766.61530	227.34344	205.99834	-590.53009	219.04753	173.59221	-882.42657	296.15445	144.70587	-554.57861	255.70128	164.60385	-668.14197	272.93387	1543.49622	-622.35138	306.23093	158.82469	-527.75818	304.24960	146.43246	-699.64130	-43.87781	618.77917	-648.11584	-84.52701	873.30933	-754.22156	-49.97257	489.17621	-757.54407	-19.25147	206.46495	-875.85919	-78.84784	141.07185	-673.61218	-69.75675	759.25476	-727.81317	240.69728	578.27069	-658.53815	297.70328	158.68806	-708.54559	-40.35487	569.38208	-686.16260	139.08556	575.18866	-607.25110	-77.53594	156.17661	-649.31097	-69.03233	160.40315	-601.33295	230.05193	1067.39832	-653.87946	-82.15186	1551.86499	-688.89392	270.54044	877.86700	-713.93805	69.01379	218.50739	-684.43170	65.61987	575.83240	
390	7.780	-712.66235	90.74760	1846.85144	-581.02484	209.15524	815.47864	-577.03314	-17.34270	1054.54126	-786.52032	74.59734	1057.51904	-576.23395	-13.35888	803.84619	-669.85071	52.64693	161.33241	-695.05322	260.59232	747.11322	-572.11200	91.32935	1355.43140	-724.09174	242.85675	644.93317	-656.46454	9.38321	519.55011	-671.46948	202.12550	535.45380	-766.69751	251.50143	505.26849	-517.76086	-72.93391	142.97720	-547.79193	-29.78873	162.72961				-790.21033	41.08615	173.64432	-595.93835	24.12766	169.55304	-673.83453	173.50391	158.86824	-710.54565	153.11046	217.12471	-794.41010	178.30281	183.42557	-766.66437	227.10712	206.00369	-590.29449	218.94810	173.64862	-882.49280	296.14606	144.68233	-554.58850	255.93672	164.65968	-670.52594	273.05936	1543.12488	-622.36523	306.20621	158.81596	-528.02759	304.34650	146.51938	-698.48431	-43.70687	618.61572	-646.09473	-84.06161	873.07025	-753.63824	-49.69648	489.16425	-757.54193	-19.16725	206.47072	-875.97473	-78.84007	141.37231	-671.95764	-69.82382	759.26569	-726.42816	240.38698	577.98828	-658.50079	297.58939	158.83374	-707.34760	-40.34058	569.22784	-684.54285	139.45665	575.38531	-607.30005	-77.72966	156.09016	-649.45190	-69.23648	160.28912	-599.05396	230.42717	1067.83606	-657.51776	-82.51838	1551.02222	-686.52094	270.23538	877.32037	-713.96564	68.85764	218.81909	-683.27539	65.50880	575.37970	
391	7.800	-716.53540	90.57780	1846.41455	-579.04901	208.91060	815.27979	-574.37292	-17.25073	1054.69324	-784.00751	74.90878	1057.33972	-574.63055	-13.48717	803.09576	-669.92480	52.78410	161.05008	-693.12579	261.04208	746.87720	-572.41785	91.23129	1355.91101	-722.38220	243.03398	644.71027	-656.24963	9.20239	519.60925	-670.81195	202.23964	535.10089	-765.19666	251.36176	505.22278	-517.72412	-72.85264	142.91487	-547.59521	-29.82488	162.77074	-683.33289	138.91336	575.34863	-789.96686	41.17274	173.48604	-595.90332	24.02489	169.62218	-673.83453	173.50391	158.86824	-710.54871	153.07028	216.64996	-794.41010	178.30281	183.42557	-766.55914	227.07236	206.23866	-590.39185	218.93512	173.43710	-882.43286	296.19171	144.73412	-554.42578	256.11270	164.61374	-672.90033	272.41104	1542.75842	-622.35138	306.23093	158.82469	-528.02759	304.34650	146.51938	-697.80707	-43.57014	618.42584	-643.86285	-83.83797	872.79340	-753.29926	-49.40717	489.51208	-757.65765	-18.79685	206.13585	-875.93463	-78.91189	141.34561	-670.31238	-69.50348	759.15076	-725.19702	240.69104	577.88794	-658.43237	297.74738	158.85712	-706.97552	-39.85440	569.34155				-607.51337	-77.41960	155.97952	-649.37140	-69.20625	160.17407	-596.63672	230.73915	1067.18433	-660.24963	-82.92143	1550.76379	-684.59088	270.61023	877.12585	-714.30334	69.05354	218.78790	-682.67059	65.41824	575.57745	
392	7.820	-720.25244	90.58012	1845.94263	-577.34460	209.51573	814.70197	-571.97229	-16.84908	1053.85400	-781.60083	75.25192	1057.28735	-573.07574	-12.48793	802.79529	-669.81171	52.53518	161.45845	-691.24823	261.18683	746.65015	-573.21112	91.27180	1355.97217	-721.27771	243.28047	644.80444	-655.85126	9.47652	519.16461	-669.67737	202.35301	534.71442	-764.35040	251.54196	504.95602	-517.43976	-72.79086	143.06081	-547.97516	-30.07379	162.80655	-682.27417	139.15883	574.97229	-789.42444	41.09203	173.42155	-595.88409	24.21737	169.63522	-673.98798	173.26047	158.61014	-710.42145	152.80739	216.71631	-794.41010	178.30281	183.42557	-766.40631	227.19205	206.29097	-590.36755	218.77676	173.35847	-882.42657	296.15445	144.70587	-554.37054	256.10159	164.55295	-674.37561	273.36703	1542.45764	-622.40240	306.23761	158.75066	-528.03583	304.25760	146.54501	-697.02844	-43.72271	618.74084	-642.26624	-84.14967	872.76624	-753.38226	-49.13696	489.50372	-757.57166	-18.81440	206.25215	-875.96130	-78.84709	141.39201	-669.22192	-69.32201	758.77844	-724.14661	240.32274	577.69128	-658.53418	297.74014	158.85815	-706.79553	-39.74967	569.28851				-607.44452	-77.60101	156.02689	-649.41107	-69.15672	160.14120	-594.22510	231.19746	1067.14551	-663.06274	-82.84592	1549.80347	-682.12646	271.34821	877.12244	-713.93805	69.01379	218.50739	-681.96161	65.66272	575.20306	
393	7.840	-723.36438	90.74544	1845.36194	-575.34045	209.77859	813.99847	-569.90533	-16.34309	1053.86853	-779.21594	75.73199	1056.78723	-571.53918	-12.25605	802.12775	-669.82910	52.53154	161.46962	-689.63129	261.40317	746.53851	-573.34045	91.25056	1356.26599	-719.87103	243.49704	644.72485	-655.56592	9.26174	519.31396	-668.72473	202.38400	534.92877	-763.68054	252.00168	505.29135	-517.59125	-72.85075	143.08270	-547.80548	-29.89309	162.85201	-681.65851	139.02202	574.64587	-789.41486	41.12433	173.22560	-595.88409	24.21737	169.63522	-673.80609	173.43999	158.52467	-710.56036	152.77525	216.94449	-794.34265	178.24741	183.39502	-766.49091	227.11594	206.30774	-590.38953	218.85817	173.26720	-882.53638	296.09531	144.59125	-554.65497	256.13315	164.53091	-676.05316	273.51031	1542.08252	-622.40240	306.23761	158.75066	-528.03583	304.25760	146.54501	-696.70477	-43.45026	618.74109	-640.39044	-83.39589	872.40479	-753.28497	-49.06235	489.82843	-757.86456	-18.81303	206.34776	-876.01501	-79.02441	141.32658	-667.75226	-69.89901	759.02747	-722.79724	241.21217	577.93939	-658.51440	297.55637	158.89449	-706.54510	-39.95262	569.62091				-607.49286	-77.32774	155.96442	-649.53113	-69.27692	160.14149	-591.87854	231.64595	1066.88257	-665.04651	-83.05285	1549.27258	-680.03137	271.93124	876.81519	-714.13824	69.06395	218.79396	-681.25690	66.07197	575.57318	
394	7.860	-726.13818	90.60829	1844.80591	-573.58685	209.64874	813.65289	-567.79913	-16.57126	1053.40271	-777.62439	76.14198	1056.59924	-570.52637	-12.17621	801.80823	-669.67212	52.88591	161.48254	-688.18622	261.93674	746.50458	-574.02667	91.37473	1356.41931	-718.55432	243.70251	644.77820	-655.38959	9.14887	519.45697	-668.05054	202.44568	534.73450	-763.01984	252.14230	505.08731	-517.62958	-72.70950	142.76076	-547.87939	-29.79308	162.82703	-681.01929	139.35994	575.39532	-789.24591	41.25475	172.99210	-595.81281	24.13705	169.63452	-673.66949	173.53490	158.46771	-710.50525	152.80450	216.61449	-794.34692	178.20683	183.47354	-766.13202	227.24283	205.90302	-590.42889	218.83061	173.31987	-882.49536	296.12518	144.65396	-554.51251	256.21738	164.60944	-677.93500	273.51331	1541.62061	-622.40240	306.23761	158.75066	-528.03583	304.25760	146.54501	-695.87433	-43.72875	619.03491	-638.66382	-83.38949	872.39087	-753.05127	-49.03739	489.97498	-757.91125	-19.06902	206.86595	-875.87347	-78.77656	141.15236	-666.33667	-69.50446	758.80890	-722.23035	241.47258	577.93494	-658.35071	297.57880	158.99751	-706.59155	-39.58362	569.38092				-607.32642	-77.62172	156.10167	-649.43982	-69.38022	160.12061	-589.37909	231.81912	1066.78320	-667.07794	-82.92918	1548.24927	-677.83630	272.66559	876.73102	-713.93805	69.01379	218.50739	-682.52429	65.98269	576.02997	
